Coordinates
version=1
nRows=6
nColumns=63
inDegrees=yes

Units are S.I. units (second, meters, Newtons, ...)
If the header above contains a line with 'inDegrees', this indicates whether rotational values are in degrees (yes) or radians (no).

endheader
time	pelvis_tilt	pelvis_list	pelvis_rotation	pelvis_tx	pelvis_ty	pelvis_tz	hip_flexion_r	hip_adduction_r	hip_rotation_r	knee_angle_r	knee_angle_r_beta	ankle_angle_r	subtalar_angle_r	mtp_angle_r	hip_flexion_l	hip_adduction_l	hip_rotation_l	knee_angle_l	knee_angle_l_beta	ankle_angle_l	subtalar_angle_l	mtp_angle_l	L5_S1_Flex_Ext	L5_S1_Lat_Bending	L5_S1_axial_rotation	L4_L5_Flex_Ext	L4_L5_Lat_Bending	L4_L5_axial_rotation	L3_L4_Flex_Ext	L3_L4_Lat_Bending	L3_L4_axial_rotation	L2_L3_Flex_Ext	L2_L3_Lat_Bending	L2_L3_axial_rotation	L1_L2_Flex_Ext	L1_L2_Lat_Bending	L1_L2_axial_rotation	L1_T12_Flex_Ext	L1_T12_Lat_Bending	L1_T12_axial_rotation	Abs_r3	Abs_r2	Abs_r1	Abs_t1	Abs_t2	neck_flexion	neck_bending	neck_rotation	arm_flex_r	arm_add_r	arm_rot_r	elbow_flex_r	pro_sup_r	wrist_flex_r	wrist_dev_r	arm_flex_l	arm_add_l	arm_rot_l	elbow_flex_l	pro_sup_l	wrist_flex_l	wrist_dev_l
5.186441	1.438998	-6.622722	116.120268	0.353887	0.511979	0.915488	3.919773	-2.960793	-22.370510	7.268178	0.126854	18.607689	15.829339	0.000000	5.631674	2.751471	2.876407	3.757221	0.065576	18.703919	2.347765	0.000000	0.243909	-0.303381	-1.443587	0.452963	-0.403496	-1.533811	0.400717	-0.737639	-1.533811	0.278763	-0.737639	-1.263138	0.226494	-0.618654	-1.172914	0.139369	-0.469936	-1.082690	1.742215	-3.431901	-8.028795	0.000000	0.000000	23.417557	0.263412	2.840724	14.765801	-14.572867	138.831894	13.653677	13.519777	-1.729334	-1.114841	1.966918	-15.079361	136.117009	7.262896	24.903504	-4.501686	-10.599422
5.203390	1.216734	-6.615954	115.684708	0.355328	0.512062	0.915817	3.826627	-3.071122	-21.532410	7.055063	0.123134	18.453321	15.547762	0.000000	5.556288	2.925015	3.222810	3.765358	0.065718	18.523630	1.459494	0.000000	0.230632	-0.340275	-1.298873	0.428307	-0.452565	-1.380052	0.378906	-0.827344	-1.380052	0.263590	-0.827344	-1.136514	0.214165	-0.693888	-1.055334	0.131783	-0.527085	-0.974154	1.647384	-3.849254	-7.223940	0.000000	0.000000	23.328378	0.709827	2.797196	15.129079	-14.522560	139.362563	14.252245	11.097751	-2.135456	-1.406533	3.791154	-15.340271	138.482188	7.971829	20.169744	-3.443144	-11.170114
5.220339	1.025155	-6.554692	115.230454	0.356675	0.512256	0.915988	3.680651	-3.117909	-20.662713	6.786515	0.118447	18.303846	15.309640	0.000000	5.421174	3.037677	3.334189	3.781363	0.065997	18.347930	0.803687	0.000000	0.216232	-0.370885	-1.146422	0.401564	-0.493278	-1.218073	0.355247	-0.901771	-1.218073	0.247131	-0.901771	-1.003119	0.200793	-0.756310	-0.931468	0.123555	-0.574502	-0.859816	1.544523	-4.195531	-6.376055	0.000000	0.000000	23.123957	1.132779	2.745349	15.430257	-14.363497	139.923086	14.606151	9.565723	-2.605665	-1.804787	5.836981	-15.544048	140.190856	8.721296	15.868591	-3.155696	-11.899537
5.237288	0.857357	-6.451046	114.795730	0.357932	0.512550	0.916033	3.488713	-3.112243	-19.756062	6.459533	0.112740	18.161197	15.053754	0.000000	5.253716	3.093564	3.177953	3.831292	0.066869	18.170230	0.441533	0.000000	0.201722	-0.396940	-1.011271	0.374618	-0.527930	-1.074476	0.331409	-0.965120	-1.074476	0.230548	-0.965120	-0.884862	0.187319	-0.809440	-0.821658	0.115264	-0.614860	-0.758453	1.440881	-4.490263	-5.624387	0.000000	0.000000	22.815418	1.600124	2.808688	15.924541	-13.907454	142.142511	14.574557	7.831599	-2.902360	-2.504688	7.701921	-15.753282	139.692158	9.845211	13.871864	-3.255164	-12.257313
5.254237	0.730634	-6.310360	114.395732	0.359040	0.512891	0.916025	3.271630	-3.050521	-18.840917	6.095083	0.106379	18.027594	14.766501	0.000000	5.075110	3.083484	2.750252	3.920033	0.068417	18.001802	0.391018	0.000000	0.187644	-0.416198	-0.890540	0.348474	-0.553543	-0.946198	0.308281	-1.011943	-0.946198	0.214458	-1.011943	-0.779222	0.174246	-0.848710	-0.723564	0.107220	-0.644690	-0.667905	1.340323	-4.708111	-4.952915	0.000000	0.000000	22.432227	2.077867	2.947821	16.455988	-13.413980	143.630509	14.500645	8.064647	-3.057550	-2.969422	9.366375	-15.959245	137.161130	11.434555	14.238672	-3.786435	-12.245189
5.271186	0.647628	-6.150537	114.035178	0.360015	0.513240	0.916047	3.062712	-2.946665	-17.945090	5.725454	0.099928	17.900522	14.443712	0.000000	4.911656	3.014963	2.069363	4.044450	0.070589	17.840696	0.641884	0.000000	0.175081	-0.429310	-0.782293	0.325144	-0.570983	-0.831186	0.287641	-1.043825	-0.831186	0.200100	-1.043825	-0.684506	0.162581	-0.875450	-0.635613	0.100041	-0.665002	-0.586719	1.250589	-4.856445	-4.350877	0.000000	0.000000	22.002827	2.549355	3.108934	17.027574	-12.917530	144.229110	14.449074	9.894296	-3.009061	-3.182791	10.832336	-16.184839	132.699035	13.583029	16.767605	-4.734882	-11.842907
